<svg width="174" height="35" viewBox="0 0 174 35" fill="none" xmlns="http://www.w3.org/2000/svg">
<g filter="url(#filter0_d_849_2931)">
<path d="M75.0752 11.2334C74.0498 11.2334 73.2559 11.6201 72.6934 12.3936C72.1309 13.1611 71.8496 14.2334 71.8496 15.6104C71.8496 18.4756 72.9248 19.9082 75.0752 19.9082C75.9775 19.9082 77.0703 19.6826 78.3535 19.2314V21.5166C77.2988 21.9561 76.1211 22.1758 74.8203 22.1758C72.9512 22.1758 71.5215 21.6104 70.5312 20.4795C69.541 19.3428 69.0459 17.7139 69.0459 15.5928C69.0459 14.2568 69.2891 13.0879 69.7754 12.0859C70.2617 11.0781 70.959 10.3076 71.8672 9.77441C72.7812 9.23535 73.8506 8.96582 75.0752 8.96582C76.3232 8.96582 77.5771 9.26758 78.8369 9.87109L77.958 12.0859C77.4775 11.8574 76.9941 11.6582 76.5078 11.4883C76.0215 11.3184 75.5439 11.2334 75.0752 11.2334ZM92.7588 15.5576C92.7588 17.6846 92.2314 19.3193 91.1768 20.4619C90.1221 21.6045 88.6104 22.1758 86.6416 22.1758C84.6729 22.1758 83.1611 21.6045 82.1064 20.4619C81.0518 19.3193 80.5244 17.6787 80.5244 15.54C80.5244 13.4014 81.0518 11.7695 82.1064 10.6445C83.167 9.51367 84.6846 8.94824 86.6592 8.94824C88.6338 8.94824 90.1426 9.5166 91.1855 10.6533C92.2344 11.79 92.7588 13.4248 92.7588 15.5576ZM83.3809 15.5576C83.3809 16.9932 83.6533 18.0742 84.1982 18.8008C84.7432 19.5273 85.5576 19.8906 86.6416 19.8906C88.8154 19.8906 89.9023 18.4463 89.9023 15.5576C89.9023 12.6631 88.8213 11.2158 86.6592 11.2158C85.5752 11.2158 84.7578 11.582 84.207 12.3145C83.6562 13.041 83.3809 14.1221 83.3809 15.5576ZM100.862 22L97.7686 11.9189H97.6895C97.8008 13.9697 97.8564 15.3379 97.8564 16.0234V22H95.4219V9.15039H99.1309L102.172 18.9766H102.225L105.45 9.15039H109.159V22H106.619V15.918C106.619 15.6309 106.622 15.2998 106.628 14.9248C106.64 14.5498 106.681 13.5537 106.751 11.9365H106.672L103.358 22H100.862ZM117.843 22L114.749 11.9189H114.67C114.781 13.9697 114.837 15.3379 114.837 16.0234V22H112.402V9.15039H116.111L119.152 18.9766H119.205L122.431 9.15039H126.14V22H123.6V15.918C123.6 15.6309 123.603 15.2998 123.608 14.9248C123.62 14.5498 123.661 13.5537 123.731 11.9365H123.652L120.339 22H117.843ZM141.046 15.5576C141.046 17.6846 140.519 19.3193 139.464 20.4619C138.409 21.6045 136.897 22.1758 134.929 22.1758C132.96 22.1758 131.448 21.6045 130.394 20.4619C129.339 19.3193 128.812 17.6787 128.812 15.54C128.812 13.4014 129.339 11.7695 130.394 10.6445C131.454 9.51367 132.972 8.94824 134.946 8.94824C136.921 8.94824 138.43 9.5166 139.473 10.6533C140.521 11.79 141.046 13.4248 141.046 15.5576ZM131.668 15.5576C131.668 16.9932 131.94 18.0742 132.485 18.8008C133.03 19.5273 133.845 19.8906 134.929 19.8906C137.103 19.8906 138.189 18.4463 138.189 15.5576C138.189 12.6631 137.108 11.2158 134.946 11.2158C133.862 11.2158 133.045 11.582 132.494 12.3145C131.943 13.041 131.668 14.1221 131.668 15.5576ZM154.37 15.4521C154.37 17.5674 153.767 19.1875 152.56 20.3125C151.358 21.4375 149.621 22 147.348 22H143.709V9.15039H147.743C149.841 9.15039 151.47 9.7041 152.63 10.8115C153.79 11.9189 154.37 13.4658 154.37 15.4521ZM151.54 15.5225C151.54 12.7627 150.321 11.3828 147.884 11.3828H146.434V19.75H147.603C150.228 19.75 151.54 18.3408 151.54 15.5225ZM168.696 15.5576C168.696 17.6846 168.169 19.3193 167.114 20.4619C166.06 21.6045 164.548 22.1758 162.579 22.1758C160.61 22.1758 159.099 21.6045 158.044 20.4619C156.989 19.3193 156.462 17.6787 156.462 15.54C156.462 13.4014 156.989 11.7695 158.044 10.6445C159.104 9.51367 160.622 8.94824 162.597 8.94824C164.571 8.94824 166.08 9.5166 167.123 10.6533C168.172 11.79 168.696 13.4248 168.696 15.5576ZM159.318 15.5576C159.318 16.9932 159.591 18.0742 160.136 18.8008C160.681 19.5273 161.495 19.8906 162.579 19.8906C164.753 19.8906 165.84 18.4463 165.84 15.5576C165.84 12.6631 164.759 11.2158 162.597 11.2158C161.513 11.2158 160.695 11.582 160.145 12.3145C159.594 13.041 159.318 14.1221 159.318 15.5576Z" fill="#001E11"/>
<path d="M11.851 26.6984C10.9662 25.9934 11.6314 25.5198 11.9958 25.0752C14.4464 22.084 16.9445 19.1303 20.9442 18.1021C22.0551 17.8165 21.9649 17.3955 21.2724 16.6607C19.421 14.6984 16.7294 14.6006 14.172 16.4789C10.7242 19.0107 8.34521 22.4415 6.06522 25.9617C5.72476 26.4873 5.45576 27.4786 4.45913 26.6625C4.10095 26.3692 3.80163 26.1471 4.16515 25.5852C6.98579 21.2307 9.80046 16.8732 14.5147 14.2349C17.5109 12.5582 20.1908 12.9901 22.5417 15.4883C24.8751 17.966 27.189 20.4611 29.5084 22.9516C31.3574 24.9363 33.0207 25.1968 35.3017 23.6883C39.1099 21.1684 41.6477 17.4891 44.1789 13.8243C47.0317 9.6936 49.4647 5.31274 51.9017 0.935509C52.2393 0.329425 52.4473 -0.385567 53.4696 0.245506C54.2478 0.726084 54.0157 1.12908 53.7388 1.51595L52.3764 3.88238C49.1602 9.62824 45.8274 15.3036 41.5546 20.3733C39.9535 22.2728 38.0823 23.9062 36.0561 25.3418C35.0439 26.0589 33.8797 26.5124 32.621 26.3785C30.8987 26.5585 29.6716 25.7153 28.6015 24.5842C27.6424 23.5704 26.7731 22.4714 25.7899 21.4816C23.9874 19.6668 21.9491 19.3823 19.6664 20.5084C17.028 21.8097 15.1594 23.9392 13.3952 26.1897C13.1214 26.5387 12.9163 27 12.5094 27C12.3343 26.9995 12.122 26.9144 11.851 26.6984ZM29.088 19.9309C33.2774 18.0697 35.8163 14.6768 38.2046 11.1733C39.8332 8.78383 41.2981 6.28294 42.802 3.81142C43.1217 3.28553 43.3543 2.81884 44.0606 3.26539C44.6499 3.63724 44.8944 3.98625 44.4555 4.72773C41.5898 9.56782 38.764 14.4335 34.6571 18.385C33.8066 19.1894 32.8835 19.9142 31.8996 20.5504C31.2339 20.9887 30.8458 21.2264 30.5199 21.2264C30.0958 21.2264 29.7768 20.8233 29.088 19.9309ZM24.9817 15.4366C28.5689 13.8794 30.7099 10.9223 32.7702 7.88272C33.208 7.23766 33.661 6.60304 34.0849 5.94913C34.4455 5.39423 34.8703 5.61345 35.2294 5.87947C35.5472 6.1151 36.0343 6.3055 35.6165 6.92157C33.3731 10.2304 31.2363 13.6333 27.8621 15.9691C27.3651 16.3127 26.8282 16.6498 26.3169 16.6498C25.8281 16.6495 25.3633 16.3415 24.9817 15.4368V15.4366Z" fill="url(#paint0_linear_849_2931)"/>
</g>
<defs>
<filter id="filter0_d_849_2931" x="0" y="0" width="172.696" height="35" filterUnits="userSpaceOnUse" color-interpolation-filters="sRGB">
<feFlood flood-opacity="0" result="BackgroundImageFix"/>
<feOffset dy="4"/>
<feGaussianBlur stdDeviation="2"/>
<feComposite in2="hardAlpha" operator="out"/>
<feColorMatrix type="matrix" values="0 0 0 0 0 0 0 0 0 0 0 0 0 0 0 0 0 0 0.25 0"/>
<feBlend mode="normal" in2="BackgroundImageFix" result="effect1_dropShadow_849_2931"/>
<feBlend mode="normal" in="SourceGraphic" in2="effect1_dropShadow_849_2931" result="shape"/>
</filter>
<linearGradient id="paint0_linear_849_2931" x1="29" y1="0" x2="29" y2="27" gradientUnits="userSpaceOnUse">
<stop stop-color="#E2F7E5"/>
<stop offset="1" stop-color="#d93a45"/>
</linearGradient>
</defs>
</svg>
